<mxfile host="app.diagrams.net" agent="Mozilla/5.0 (Windows NT 10.0; Win64; x64) AppleWebKit/537.36 (KHTML, like Gecko) Chrome/134.0.0.0 Safari/537.36 Edg/134.0.0.0" version="26.0.13">
  <diagram name="第 1 页" id="UgfqnTjjX8_KX1mcIwZx">
    <mxGraphModel dx="788" dy="447" grid="1" gridSize="10" guides="1" tooltips="1" connect="1" arrows="1" fold="1" page="1" pageScale="1" pageWidth="827" pageHeight="1169" math="0" shadow="0">
      <root>
        <mxCell id="0" />
        <mxCell id="1" parent="0" />
        <mxCell id="SOtteh8btGvdTnXQB1vJ-2" value="&lt;div style=&quot;background-color:#262626;color:#d0d0d0&quot;&gt;&lt;pre style=&quot;font-family:&#39;JetBrains Mono&#39;,monospace;font-size:12.0pt;&quot;&gt;FEngineLoop&lt;/pre&gt;&lt;/div&gt;" style="shape=umlLifeline;perimeter=lifelinePerimeter;whiteSpace=wrap;html=1;container=1;dropTarget=0;collapsible=0;recursiveResize=0;outlineConnect=0;portConstraint=eastwest;newEdgeStyle={&quot;curved&quot;:0,&quot;rounded&quot;:0};" vertex="1" parent="1">
          <mxGeometry x="80" y="80" width="100" height="980" as="geometry" />
        </mxCell>
        <mxCell id="SOtteh8btGvdTnXQB1vJ-3" value="&lt;div style=&quot;background-color:#262626;color:#d0d0d0&quot;&gt;&lt;pre style=&quot;font-family:&#39;JetBrains Mono&#39;,monospace;font-size:12.0pt;&quot;&gt;PreInitPreStartupScreen&lt;/pre&gt;&lt;/div&gt;" style="html=1;points=[[0,0,0,0,5],[0,1,0,0,-5],[1,0,0,0,5],[1,1,0,0,-5]];perimeter=orthogonalPerimeter;outlineConnect=0;targetShapes=umlLifeline;portConstraint=eastwest;newEdgeStyle={&quot;curved&quot;:0,&quot;rounded&quot;:0};" vertex="1" parent="SOtteh8btGvdTnXQB1vJ-2">
          <mxGeometry x="45" y="90" width="10" height="80" as="geometry" />
        </mxCell>
        <mxCell id="SOtteh8btGvdTnXQB1vJ-4" value="dispatch" style="html=1;verticalAlign=bottom;startArrow=oval;endArrow=block;startSize=8;curved=0;rounded=0;entryX=0;entryY=0;entryDx=0;entryDy=5;" edge="1" target="SOtteh8btGvdTnXQB1vJ-3" parent="SOtteh8btGvdTnXQB1vJ-2">
          <mxGeometry relative="1" as="geometry">
            <mxPoint x="-30" y="95" as="sourcePoint" />
          </mxGeometry>
        </mxCell>
        <mxCell id="SOtteh8btGvdTnXQB1vJ-5" value="初始化游戏之前&lt;div&gt;处理命令行&lt;/div&gt;" style="text;html=1;align=center;verticalAlign=middle;resizable=0;points=[];autosize=1;strokeColor=none;fillColor=none;" vertex="1" parent="1">
          <mxGeometry x="5" y="223" width="110" height="40" as="geometry" />
        </mxCell>
        <mxCell id="SOtteh8btGvdTnXQB1vJ-6" value="&lt;span style=&quot;font-family: &amp;quot;JetBrains Mono&amp;quot;, monospace; font-size: 12pt; background-color: rgb(38, 38, 38); color: rgb(208, 208, 208);&quot;&gt;FTraceAuxiliary&lt;/span&gt;" style="shape=umlLifeline;perimeter=lifelinePerimeter;whiteSpace=wrap;html=1;container=1;dropTarget=0;collapsible=0;recursiveResize=0;outlineConnect=0;portConstraint=eastwest;newEdgeStyle={&quot;curved&quot;:0,&quot;rounded&quot;:0};" vertex="1" parent="1">
          <mxGeometry x="364" y="80" width="136" height="980" as="geometry" />
        </mxCell>
        <mxCell id="SOtteh8btGvdTnXQB1vJ-7" value="&lt;div style=&quot;background-color:#262626;color:#d0d0d0&quot;&gt;&lt;pre style=&quot;font-family:&#39;JetBrains Mono&#39;,monospace;font-size:12.0pt;&quot;&gt;&lt;span style=&quot;color:#39cc9b;&quot;&gt;Initialize&lt;/span&gt;&lt;/pre&gt;&lt;/div&gt;" style="html=1;points=[[0,0,0,0,5],[0,1,0,0,-5],[1,0,0,0,5],[1,1,0,0,-5]];perimeter=orthogonalPerimeter;outlineConnect=0;targetShapes=umlLifeline;portConstraint=eastwest;newEdgeStyle={&quot;curved&quot;:0,&quot;rounded&quot;:0};" vertex="1" parent="SOtteh8btGvdTnXQB1vJ-6">
          <mxGeometry x="63" y="90" width="10" height="540" as="geometry" />
        </mxCell>
        <mxCell id="SOtteh8btGvdTnXQB1vJ-8" value="cmdline" style="html=1;verticalAlign=bottom;endArrow=block;curved=0;rounded=0;entryX=0;entryY=0;entryDx=0;entryDy=5;exitX=1;exitY=0;exitDx=0;exitDy=5;exitPerimeter=0;" edge="1" target="SOtteh8btGvdTnXQB1vJ-7" parent="1" source="SOtteh8btGvdTnXQB1vJ-3">
          <mxGeometry relative="1" as="geometry">
            <mxPoint x="350" y="175" as="sourcePoint" />
            <mxPoint as="offset" />
          </mxGeometry>
        </mxCell>
        <mxCell id="SOtteh8btGvdTnXQB1vJ-10" value="&lt;div style=&quot;background-color:#262626;color:#d0d0d0&quot;&gt;&lt;pre style=&quot;font-family:&#39;JetBrains Mono&#39;,monospace;font-size:12.0pt;&quot;&gt;FTraceAuxiliaryImpl&lt;/pre&gt;&lt;/div&gt;" style="shape=umlLifeline;perimeter=lifelinePerimeter;whiteSpace=wrap;html=1;container=1;dropTarget=0;collapsible=0;recursiveResize=0;outlineConnect=0;portConstraint=eastwest;newEdgeStyle={&quot;curved&quot;:0,&quot;rounded&quot;:0};" vertex="1" parent="1">
          <mxGeometry x="700" y="80" width="170" height="960" as="geometry" />
        </mxCell>
        <mxCell id="SOtteh8btGvdTnXQB1vJ-11" value="&lt;div style=&quot;background-color:#262626;color:#d0d0d0&quot;&gt;&lt;pre style=&quot;font-family:&#39;JetBrains Mono&#39;,monospace;font-size:12.0pt;&quot;&gt;AddChannels&lt;/pre&gt;&lt;/div&gt;" style="html=1;points=[[0,0,0,0,5],[0,1,0,0,-5],[1,0,0,0,5],[1,1,0,0,-5]];perimeter=orthogonalPerimeter;outlineConnect=0;targetShapes=umlLifeline;portConstraint=eastwest;newEdgeStyle={&quot;curved&quot;:0,&quot;rounded&quot;:0};" vertex="1" parent="SOtteh8btGvdTnXQB1vJ-10">
          <mxGeometry x="80" y="110" width="10" height="80" as="geometry" />
        </mxCell>
        <mxCell id="SOtteh8btGvdTnXQB1vJ-15" value="&lt;div style=&quot;background-color:#262626;color:#d0d0d0&quot;&gt;&lt;pre style=&quot;font-family:&#39;JetBrains Mono&#39;,monospace;font-size:12.0pt;&quot;&gt;&lt;span style=&quot;color:#39cc9b;&quot;&gt;EnableChannel&lt;/span&gt;&lt;/pre&gt;&lt;/div&gt;" style="html=1;points=[[0,0,0,0,5],[0,1,0,0,-5],[1,0,0,0,5],[1,1,0,0,-5]];perimeter=orthogonalPerimeter;outlineConnect=0;targetShapes=umlLifeline;portConstraint=eastwest;newEdgeStyle={&quot;curved&quot;:0,&quot;rounded&quot;:0};" vertex="1" parent="SOtteh8btGvdTnXQB1vJ-10">
          <mxGeometry x="80" y="210" width="10" height="80" as="geometry" />
        </mxCell>
        <mxCell id="SOtteh8btGvdTnXQB1vJ-19" value="&lt;div style=&quot;background-color:#262626;color:#d0d0d0&quot;&gt;&lt;pre style=&quot;font-family:&#39;JetBrains Mono&#39;,monospace;font-size:12.0pt;&quot;&gt;Connect&lt;/pre&gt;&lt;/div&gt;" style="html=1;points=[[0,0,0,0,5],[0,1,0,0,-5],[1,0,0,0,5],[1,1,0,0,-5]];perimeter=orthogonalPerimeter;outlineConnect=0;targetShapes=umlLifeline;portConstraint=eastwest;newEdgeStyle={&quot;curved&quot;:0,&quot;rounded&quot;:0};" vertex="1" parent="SOtteh8btGvdTnXQB1vJ-10">
          <mxGeometry x="80" y="320" width="10" height="80" as="geometry" />
        </mxCell>
        <mxCell id="SOtteh8btGvdTnXQB1vJ-12" value="channels" style="html=1;verticalAlign=bottom;endArrow=block;curved=0;rounded=0;entryX=0;entryY=0;entryDx=0;entryDy=5;" edge="1" target="SOtteh8btGvdTnXQB1vJ-11" parent="1" source="SOtteh8btGvdTnXQB1vJ-7">
          <mxGeometry relative="1" as="geometry">
            <mxPoint x="710" y="195" as="sourcePoint" />
          </mxGeometry>
        </mxCell>
        <mxCell id="SOtteh8btGvdTnXQB1vJ-14" value="1、将需要追踪的channel存入map：Channels&lt;div&gt;2、开启channel&lt;/div&gt;" style="text;html=1;align=center;verticalAlign=middle;resizable=0;points=[];autosize=1;strokeColor=none;fillColor=none;" vertex="1" parent="1">
          <mxGeometry x="790" y="170" width="270" height="40" as="geometry" />
        </mxCell>
        <mxCell id="SOtteh8btGvdTnXQB1vJ-16" value="" style="html=1;verticalAlign=bottom;endArrow=block;curved=0;rounded=0;entryX=0;entryY=0;entryDx=0;entryDy=5;" edge="1" target="SOtteh8btGvdTnXQB1vJ-15" parent="1" source="SOtteh8btGvdTnXQB1vJ-7">
          <mxGeometry relative="1" as="geometry">
            <mxPoint x="710" y="295" as="sourcePoint" />
          </mxGeometry>
        </mxCell>
        <mxCell id="SOtteh8btGvdTnXQB1vJ-18" value="遍历Channels开启channel" style="text;html=1;align=center;verticalAlign=middle;resizable=0;points=[];autosize=1;strokeColor=none;fillColor=none;" vertex="1" parent="1">
          <mxGeometry x="790" y="288" width="160" height="30" as="geometry" />
        </mxCell>
        <mxCell id="SOtteh8btGvdTnXQB1vJ-20" value="dispatch" style="html=1;verticalAlign=bottom;endArrow=block;curved=0;rounded=0;entryX=0;entryY=0;entryDx=0;entryDy=5;" edge="1" target="SOtteh8btGvdTnXQB1vJ-19" parent="1" source="SOtteh8btGvdTnXQB1vJ-7">
          <mxGeometry relative="1" as="geometry">
            <mxPoint x="710" y="405" as="sourcePoint" />
          </mxGeometry>
        </mxCell>
      </root>
    </mxGraphModel>
  </diagram>
</mxfile>
